<?xml version="1.0" standalone="no"?><!DOCTYPE svg PUBLIC "-//W3C//DTD SVG 1.1//EN" "http://www.w3.org/Graphics/SVG/1.1/DTD/svg11.dtd"><svg t="1569499806850" class="icon" viewBox="0 0 1024 1024" version="1.1" xmlns="http://www.w3.org/2000/svg" p-id="2064" xmlns:xlink="http://www.w3.org/1999/xlink" width="200" height="200"><defs><style type="text/css"></style></defs><path d="M271.44127 255.9097c-14.086772 0-25.283951 12.461376-25.283951 27.631746s11.197178 27.451146 25.283951 27.451147 25.283951-12.280776 25.28395-27.451147-11.197178-27.631746-25.28395-27.631746z m-124.252557 0c-14.086772 0-25.64515 12.461376-25.64515 27.631746s11.558377 27.451146 25.64515 27.451147 25.103351-12.280776 25.10335-27.451147-11.016578-27.631746-25.10335-27.631746z m62.306878 0c-13.906173 0-25.46455 12.461376-25.46455 27.631746s11.558377 27.631746 25.46455 27.631746c13.725573 0 25.283951-12.280776 25.28395-27.451146s-11.738977-27.812346-25.28395-27.812346zM171.569665 748.585538H100.232804V373.118871h558.23351s51.651499 1.986596 51.651499-13.544973l-0.902998-159.830688v-0.541799c0-15.17037-11.197178-27.451146-25.103351-27.451146H75.129453c-14.267372 0-25.64515 12.280776-25.64515 27.451146v577.196473c0 15.17037 11.377778 27.451146 25.64515 27.451146h110.707584c19.685362 0 22.574956-55.263492-14.267372-55.263492zM100.232804 226.471958h558.23351v113.958377H100.232804v-113.958377z m590.019048 518.140388c-32.507937 1.805996-29.257143-15.892769-10.11358-42.440917 43.885714-61.40388 125.155556-145.021517 128.586948-205.883598 5.23739-79.283245-70.614462-103.664198-148.814109-103.664198a493.037037 493.037037 0 0 0-148.814109 31.785538c-132.018342 48.761905-214.732981 125.697354-267.106879 211.843386-54.541093 85.604233-37.564727 167.596473 79.825045 169.763669 88.674427-3.792593 148.45291-29.618342 208.773192-62.126279 0.541799 0-167.596473 50.026102-229.722752 13.003175-7.043386-3.431393-13.725573-8.668783-15.712169-23.477954 0-30.340741 47.497707-62.126279 75.490653-72.05926v-51.832098c56.16649 20.768959 122.446561 14.989771 178.97425-29.437743 1.805996 5.23739 3.611993 12.100176 3.431393 18.962963h9.391182c2.347795-20.40776-11.016578-40.634921-33.049735-41.899118a57.611287 57.611287 0 0 1 13.364374 13.725573l-1.083598 0.541799-0.1806 0.722399c-73.142857 53.457496-143.937919 28.895944-150.800705 27.089947l40.63492-41.537919-11.377778-30.521341a1474.41552 1474.41552 0 0 1 258.618695-71.51746l-24.742151-21.130159 12.822575-8.307583c65.738272 19.143563 110.346384 33.772134 107.817989 70.072663a74.407055 74.407055 0 0 1-6.682187 21.130158c-19.865961 40.81552-77.296649 106.373192-100.594003 134.727337-15.17037 18.782363-30.340741 36.300529-40.815521 53.457496a92.10582 92.10582 0 0 0-18.059964 48.942504c1.986596 119.918166 340.610935-56.888889 407.252204-103.122398-97.16261 43.524515-202.632804 85.062434-317.31358 93.189418z" p-id="2065"></path></svg>