<?xml version="1.0" standalone="no"?><!DOCTYPE svg PUBLIC "-//W3C//DTD SVG 1.1//EN" "http://www.w3.org/Graphics/SVG/1.1/DTD/svg11.dtd"><svg t="1569499890510" class="icon" viewBox="0 0 1024 1024" version="1.1" xmlns="http://www.w3.org/2000/svg" p-id="4077" xmlns:xlink="http://www.w3.org/1999/xlink" width="200" height="200"><defs><style type="text/css"></style></defs><path d="M212.8 162.267a8.533 8.533 0 0 0-8.533 8.533v682.667A8.533 8.533 0 0 0 212.8 862h597.667a8.533 8.533 0 0 0 8.533-8.533V170.8a8.533 8.533 0 0 0-8.533-8.533H212.8z m0-68.267h597.667c42.415 0 76.8 34.385 76.8 76.8v682.667c0 42.415-34.385 76.8-76.8 76.8H212.8c-42.415 0-76.8-34.385-76.8-76.8V170.8c0-42.415 34.385-76.8 76.8-76.8z m128.083 460.8c-23.575 0-42.687-19.103-42.687-42.667s19.112-42.666 42.687-42.666c23.576 0 42.688 19.102 42.688 42.666 0 23.564-19.112 42.667-42.688 42.667z m170.75 0c-23.575 0-42.687-19.103-42.687-42.667s19.112-42.666 42.687-42.666c23.576 0 42.688 19.102 42.688 42.666 0 23.564-19.112 42.667-42.688 42.667z m170.75 0c-23.575 0-42.687-19.103-42.687-42.667s19.112-42.666 42.687-42.666c23.576 0 42.688 19.102 42.688 42.666 0 23.564-19.112 42.667-42.688 42.667z" p-id="4078"></path></svg>